<svg xmlns="http://www.w3.org/2000/svg" viewBox="0 0 64 64" width="64" height="64">
  <defs>
    <linearGradient id="g" x1="0" y1="0" x2="1" y2="1">
      <stop offset="0" stop-color="#0d8f46"/>
      <stop offset="1" stop-color="#075c2c"/>
    </linearGradient>
  </defs>
  <rect width="64" height="64" rx="15" fill="url(#g)"/>
  <circle cx="32" cy="32" r="16" fill="#fff"/>
  <g fill="#0f1b2d">
    <polygon points="32,24 36.7,27.4 34.9,32.9 29.1,32.9 27.3,27.4"/>
    <path d="M32 17.5l1 2-1 1.2-1-1.2zM44.4 26.6l-1.9 1 .4 1.5 2 .2zM41.2 41.1l-1.6-1.3-1.3.9.6 2zM22.8 41.1l1.6-1.3 1.3.9-.6 2zM19.6 26.6l1.9 1-.4 1.5-2 .2z"/>
  </g>
  <circle cx="32" cy="32" r="16" fill="none" stroke="#0f1b2d" stroke-width="1.4"/>
  <circle cx="49" cy="16" r="4.4" fill="#f5b50a"/>
  <circle cx="49" cy="16" r="1.7" fill="#fff"/>
</svg>
